<svg width="141" height="42" viewBox="0 0 141 42" fill="none" xmlns="http://www.w3.org/2000/svg">
<g clip-path="url(#clip0_2214_1020)">
<path d="M135.778 0H5.22222C2.33807 0 0 2.3505 0 5.25V36.75C0 39.6495 2.33807 42 5.22222 42H135.778C138.662 42 141 39.6495 141 36.75V5.25C141 2.3505 138.662 0 135.778 0Z" fill="#3E3E3E"/>
<path d="M135.778 0.84C136.941 0.84 138.057 1.30462 138.88 2.13166C139.702 2.95869 140.164 4.0804 140.164 5.25V36.75C140.164 37.9196 139.702 39.0413 138.88 39.8683C138.057 40.6954 136.941 41.16 135.778 41.16H5.22222C4.05881 41.16 2.94304 40.6954 2.12038 39.8683C1.29772 39.0413 0.835556 37.9196 0.835556 36.75V5.25C0.835556 4.0804 1.29772 2.95869 2.12038 2.13166C2.94304 1.30462 4.05881 0.84 5.22222 0.84H135.778ZM135.778 0H5.22222C3.8372 0 2.50891 0.553123 1.52955 1.53769C0.550197 2.52226 0 3.85761 0 5.25V36.75C0 38.1424 0.550197 39.4777 1.52955 40.4623C2.50891 41.4469 3.8372 42 5.22222 42H135.778C137.163 42 138.491 41.4469 139.47 40.4623C140.45 39.4777 141 38.1424 141 36.75V5.25C141 3.85761 140.45 2.52226 139.47 1.53769C138.491 0.553123 137.163 0 135.778 0Z" fill="#A6A6A6"/>
<path d="M33.5402 20.2777C33.5113 17.0533 36.1664 15.4846 36.2878 15.4116C34.7841 13.2076 32.4535 12.9065 31.6344 12.8824C29.677 12.6753 27.7782 14.06 26.7811 14.06C25.764 14.06 24.2285 12.9024 22.5736 12.9365C20.4439 12.9695 18.4516 14.209 17.359 16.1339C15.1039 20.0586 16.7858 25.8262 18.9462 28.9986C20.027 30.5523 21.2898 32.2871 22.9428 32.2261C24.5599 32.159 25.164 31.1896 27.1155 31.1896C29.049 31.1896 29.6163 32.2261 31.3021 32.1871C33.0376 32.159 34.1303 30.6264 35.1732 29.0587C36.4221 27.2779 36.9237 25.5241 36.9436 25.434C36.9028 25.42 33.573 24.1425 33.5402 20.2777Z" fill="white"/>
<path d="M30.3556 10.7959C31.2253 9.70242 31.8204 8.21475 31.6552 6.70508C30.3964 6.7611 28.822 7.58047 27.9154 8.64995C27.1134 9.59237 26.3968 11.1371 26.5819 12.5897C27.9961 12.6958 29.448 11.8724 30.3556 10.7959Z" fill="white"/>
<path d="M56.943 26.5093H54.683L53.445 22.5985H49.142L47.9627 26.5093H45.7625L50.0257 13.1953H52.6589L56.943 26.5093ZM53.0719 20.9578L51.9523 17.4812C51.8339 17.1261 51.612 16.2897 51.2846 14.9731H51.2448C51.1144 15.5394 50.9044 16.3757 50.6158 17.4812L49.5162 20.9578H53.0719Z" fill="white"/>
<path d="M67.9064 21.5911C67.9064 23.2238 67.4676 24.5144 66.5898 25.4618C65.8037 26.3052 64.8274 26.7264 63.6621 26.7264C62.4042 26.7264 61.5006 26.2722 60.9503 25.3638H60.9105V30.421H58.7888V20.0694C58.7888 19.043 58.762 17.9895 58.7102 16.909H60.5761L60.6945 18.4307H60.7343C61.4419 17.2842 62.5157 16.7119 63.9567 16.7119C65.0832 16.7119 66.0236 17.1591 66.7759 18.0545C67.5302 18.9509 67.9064 20.1294 67.9064 21.5911ZM65.7449 21.6691C65.7449 20.7347 65.536 19.9644 65.116 19.3581C64.6572 18.7258 64.0412 18.4097 63.269 18.4097C62.7455 18.4097 62.2699 18.5857 61.8449 18.9329C61.419 19.2831 61.1404 19.7403 61.01 20.3065C60.9443 20.5706 60.9115 20.7867 60.9115 20.9568V22.5575C60.9115 23.2558 61.1244 23.8451 61.5504 24.3263C61.9763 24.8075 62.5296 25.0476 63.2103 25.0476C64.0094 25.0476 64.6314 24.7375 65.0762 24.1192C65.522 23.4999 65.7449 22.6836 65.7449 21.6691Z" fill="white"/>
<path d="M78.89 21.5911C78.89 23.2238 78.4512 24.5144 77.5725 25.4618C76.7873 26.3052 75.811 26.7264 74.6457 26.7264C73.3878 26.7264 72.4842 26.2722 71.9349 25.3638H71.8951V30.421H69.7734V20.0694C69.7734 19.043 69.7466 17.9895 69.6948 16.909H71.5607L71.6792 18.4307H71.719C72.4255 17.2842 73.4993 16.7119 74.9413 16.7119C76.0668 16.7119 77.0072 17.1591 77.7615 18.0545C78.5129 18.9509 78.89 20.1294 78.89 21.5911ZM76.7286 21.6691C76.7286 20.7347 76.5186 19.9644 76.0986 19.3581C75.6399 18.7258 75.0259 18.4097 74.2526 18.4097C73.7282 18.4097 73.2535 18.5857 72.8276 18.9329C72.4016 19.2831 72.124 19.7403 71.9936 20.3065C71.9289 20.5706 71.8951 20.7867 71.8951 20.9568V22.5575C71.8951 23.2558 72.1081 23.8451 72.532 24.3263C72.9579 24.8065 73.5112 25.0476 74.1939 25.0476C74.993 25.0476 75.615 24.7375 76.0598 24.1192C76.5057 23.4999 76.7286 22.6836 76.7286 21.6691Z" fill="white"/>
<path d="M91.1703 22.7754C91.1703 23.9079 90.7792 24.8293 89.9941 25.5406C89.1313 26.3179 87.9301 26.7061 86.3866 26.7061C84.9616 26.7061 83.8191 26.43 82.9543 25.8767L83.446 24.099C84.3774 24.6652 85.3994 24.9493 86.513 24.9493C87.3121 24.9493 87.9341 24.7673 88.3809 24.4051C88.8258 24.0429 89.0477 23.5567 89.0477 22.9504C89.0477 22.4102 88.8646 21.955 88.4973 21.5858C88.1321 21.2167 87.5221 20.8735 86.6702 20.5564C84.3515 19.687 83.1932 18.4134 83.1932 16.7387C83.1932 15.6442 83.5992 14.7468 84.4122 14.0485C85.2223 13.3492 86.303 13 87.6545 13C88.8596 13 89.8607 13.2111 90.6598 13.6323L90.1294 15.3711C89.383 14.9629 88.5391 14.7588 87.5947 14.7588C86.8484 14.7588 86.2652 14.9439 85.8473 15.312C85.494 15.6412 85.3168 16.0424 85.3168 16.5176C85.3168 17.0438 85.5189 17.479 85.9249 17.8212C86.2782 18.1373 86.92 18.4794 87.8515 18.8486C88.9909 19.3098 89.8279 19.8491 90.3663 20.4673C90.9026 21.0836 91.1703 21.855 91.1703 22.7754Z" fill="white"/>
<path d="M98.1851 18.5094H95.8464V23.1705C95.8464 24.356 96.2584 24.9483 97.0844 24.9483C97.4636 24.9483 97.778 24.9152 98.0268 24.8492L98.0855 26.4689C97.6676 26.626 97.1173 26.705 96.4356 26.705C95.5977 26.705 94.9429 26.4479 94.4702 25.9347C93.9994 25.4205 93.7626 24.5581 93.7626 23.3465V18.5074H92.3694V16.9067H93.7626V15.1489L95.8464 14.5166V16.9067H98.1851V18.5094Z" fill="white"/>
<path d="M108.737 21.6301C108.737 23.1057 108.317 24.3173 107.479 25.2647C106.6 26.2401 105.434 26.7264 103.98 26.7264C102.579 26.7264 101.463 26.2592 100.631 25.3247C99.7993 24.3903 99.3833 23.2108 99.3833 21.7892C99.3833 20.3015 99.8112 19.083 100.67 18.1355C101.527 17.1871 102.683 16.7129 104.137 16.7129C105.538 16.7129 106.666 17.1801 107.517 18.1155C108.331 19.0229 108.737 20.1944 108.737 21.6301ZM106.535 21.6991C106.535 20.8137 106.347 20.0544 105.966 19.4211C105.521 18.6548 104.885 18.2726 104.062 18.2726C103.209 18.2726 102.561 18.6558 102.116 19.4211C101.735 20.0554 101.547 20.8267 101.547 21.7391C101.547 22.6245 101.735 23.3839 102.116 24.0162C102.575 24.7825 103.216 25.1647 104.043 25.1647C104.853 25.1647 105.489 24.7745 105.947 23.9961C106.338 23.3509 106.535 22.5835 106.535 21.6991Z" fill="white"/>
<path d="M115.633 18.7848C115.423 18.7458 115.199 18.7258 114.964 18.7258C114.218 18.7258 113.641 19.0089 113.235 19.5762C112.881 20.0764 112.704 20.7087 112.704 21.472V26.5093H110.584L110.604 19.9324C110.604 18.8259 110.577 17.8184 110.524 16.91H112.372L112.45 18.7468H112.508C112.732 18.1155 113.085 17.6073 113.569 17.2261C114.042 16.883 114.552 16.7119 115.103 16.7119C115.299 16.7119 115.476 16.7259 115.633 16.7509V18.7848Z" fill="white"/>
<path d="M125.122 21.2544C125.122 21.6366 125.097 21.9587 125.044 22.2218H118.679C118.704 23.1703 119.011 23.8956 119.603 24.3958C120.139 24.843 120.833 25.0671 121.684 25.0671C122.627 25.0671 123.487 24.916 124.26 24.6129L124.592 26.0936C123.689 26.4897 122.622 26.6868 121.391 26.6868C119.91 26.6868 118.748 26.2486 117.902 25.3732C117.058 24.4978 116.635 23.3223 116.635 21.8477C116.635 20.4 117.028 19.1945 117.815 18.233C118.639 17.2066 119.753 16.6934 121.154 16.6934C122.53 16.6934 123.572 17.2066 124.28 18.233C124.84 19.0484 125.122 20.0569 125.122 21.2544ZM123.099 20.7011C123.112 20.0689 122.974 19.5226 122.687 19.0614C122.319 18.4682 121.755 18.172 120.996 18.172C120.302 18.172 119.738 18.4611 119.307 19.0414C118.954 19.5026 118.744 20.0559 118.679 20.7001H123.099V20.7011Z" fill="white"/>
</g>
<defs>
<clipPath id="clip0_2214_1020">
<rect width="141" height="42" fill="white"/>
</clipPath>
</defs>
</svg>
