<svg width="141" height="42" viewBox="0 0 141 42" fill="none" xmlns="http://www.w3.org/2000/svg">
<g clip-path="url(#clip0_2214_1005)">
<path d="M135.778 0H5.22222C2.33807 0 0 2.3505 0 5.25V36.75C0 39.6495 2.33807 42 5.22222 42H135.778C138.662 42 141 39.6495 141 36.75V5.25C141 2.3505 138.662 0 135.778 0Z" fill="#3E3E3E"/>
<path d="M135.778 0.84C136.941 0.84 138.057 1.30462 138.88 2.13166C139.702 2.95869 140.164 4.0804 140.164 5.25V36.75C140.164 37.9196 139.702 39.0413 138.88 39.8683C138.057 40.6954 136.941 41.16 135.778 41.16H5.22222C4.05881 41.16 2.94304 40.6954 2.12038 39.8683C1.29772 39.0413 0.835556 37.9196 0.835556 36.75V5.25C0.835556 4.0804 1.29772 2.95869 2.12038 2.13166C2.94304 1.30462 4.05881 0.84 5.22222 0.84H135.778ZM135.778 0H5.22222C3.8372 0 2.50891 0.553123 1.52955 1.53769C0.550197 2.52226 0 3.85761 0 5.25V36.75C0 38.1424 0.550197 39.4777 1.52955 40.4623C2.50891 41.4469 3.8372 42 5.22222 42H135.778C137.163 42 138.491 41.4469 139.47 40.4623C140.45 39.4777 141 38.1424 141 36.75V5.25C141 3.85761 140.45 2.52226 139.47 1.53769C138.491 0.553123 137.163 0 135.778 0Z" fill="#A6A6A6"/>
<path d="M71.1686 17.9928C70.2916 17.9969 69.4354 18.2621 68.7082 18.755C67.981 19.2479 67.4153 19.9463 67.0825 20.762C66.7498 21.5778 66.6648 22.4744 66.8385 23.3386C67.0121 24.2029 67.4365 24.9961 68.0581 25.6181C68.6797 26.2401 69.4707 26.663 70.3312 26.8335C71.1917 27.004 72.0831 26.9144 72.893 26.576C73.7029 26.2377 74.3949 25.6657 74.8817 24.9323C75.3686 24.1989 75.6284 23.337 75.6284 22.4553C75.6369 21.8651 75.5272 21.2792 75.3058 20.7326C75.0845 20.1859 74.7559 19.6896 74.3398 19.2732C73.9237 18.8569 73.4285 18.5289 72.8837 18.3089C72.3389 18.0889 71.7556 17.9814 71.1686 17.9928ZM71.1686 25.1643C70.6292 25.2022 70.091 25.0761 69.6238 24.8024C69.1567 24.5287 68.7822 24.1201 68.5492 23.6296C68.3161 23.1391 68.2352 22.5895 68.3169 22.0522C68.3987 21.5149 68.6394 21.0147 69.0076 20.6167C69.3759 20.2188 69.8547 19.9413 70.3819 19.8206C70.9091 19.6998 71.4602 19.7412 71.9636 19.9395C72.4671 20.1378 72.8995 20.4838 73.2048 20.9324C73.51 21.3811 73.674 21.9117 73.6753 22.4553C73.6921 22.7997 73.6402 23.144 73.5225 23.4679C73.4049 23.7918 73.2239 24.0888 72.9903 24.3412C72.7567 24.5937 72.4751 24.7966 72.1622 24.938C71.8494 25.0793 71.5115 25.1563 71.1686 25.1643ZM61.4448 17.9928C60.5674 17.9948 59.7102 18.2583 58.9816 18.7499C58.253 19.2415 57.6857 19.9392 57.3513 20.7548C57.0169 21.5704 56.9305 22.4673 57.103 23.3323C57.2754 24.1972 57.699 24.9914 58.3202 25.6144C58.9414 26.2374 59.7324 26.6614 60.5931 26.8328C61.4539 27.0041 62.3459 26.9151 63.1564 26.577C63.9669 26.239 64.6595 25.667 65.1468 24.9334C65.6341 24.1998 65.8942 23.3374 65.8942 22.4553C65.9027 21.8651 65.793 21.2792 65.5716 20.7326C65.3502 20.1859 65.0217 19.6896 64.6056 19.2732C64.1895 18.8569 63.6943 18.5289 63.1495 18.3089C62.6047 18.0889 62.0214 17.9814 61.4344 17.9928H61.4448ZM61.4448 25.1643C60.9052 25.2043 60.3661 25.0801 59.8976 24.8078C59.4292 24.5356 59.0531 24.1278 58.8184 23.6377C58.5837 23.1475 58.5012 22.5977 58.5817 22.0597C58.6622 21.5218 58.9019 21.0207 59.2696 20.6216C59.6373 20.2226 60.116 19.944 60.6434 19.8223C61.1708 19.7006 61.7224 19.7413 62.2265 19.9391C62.7305 20.137 63.1636 20.4828 63.4694 20.9316C63.7753 21.3803 63.9396 21.9113 63.9411 22.4553C63.9579 22.7997 63.9059 23.144 63.7883 23.4679C63.6706 23.7918 63.4897 24.0888 63.2561 24.3412C63.0224 24.5937 62.7409 24.7966 62.428 24.938C62.1152 25.0793 61.7773 25.1563 61.4344 25.1643H61.4448ZM49.862 19.3683V21.2583H54.374C54.3032 22.1484 53.9351 22.9884 53.3295 23.6418C52.8781 24.104 52.3354 24.4661 51.7364 24.7048C51.1374 24.9435 50.4953 25.0535 49.8515 25.0278C48.5219 25.0278 47.2467 24.4968 46.3065 23.5516C45.3664 22.6064 44.8382 21.3244 44.8382 19.9878C44.8382 18.6511 45.3664 17.3691 46.3065 16.4239C47.2467 15.4787 48.5219 14.9478 49.8515 14.9478C51.1234 14.9269 52.3517 15.414 53.2668 16.3022L54.5933 14.9688C53.9755 14.3398 53.2384 13.842 52.4257 13.5047C51.6129 13.1674 50.7412 12.9976 49.862 13.0053C48.9334 12.9689 48.0072 13.1214 47.1387 13.4536C46.2702 13.7857 45.4773 14.2907 44.8076 14.9383C44.1379 15.5859 43.6051 16.3627 43.2412 17.2223C42.8773 18.0818 42.6897 19.0063 42.6897 19.9405C42.6897 20.8747 42.8773 21.7992 43.2412 22.6587C43.6051 23.5183 44.1379 24.2951 44.8076 24.9427C45.4773 25.5903 46.2702 26.0953 47.1387 26.4274C48.0072 26.7596 48.9334 26.9121 49.862 26.8758C50.7559 26.9164 51.6482 26.764 52.4787 26.4289C53.3093 26.0939 54.0588 25.5839 54.6768 24.9333C55.7711 23.7246 56.3553 22.1358 56.3062 20.5023C56.3095 20.1043 56.2746 19.7069 56.2017 19.3157L49.862 19.3683ZM97.1857 20.8382C96.9133 20.0326 96.404 19.3292 95.7251 18.821C95.0462 18.3129 94.2298 18.0241 93.384 17.9928C92.8126 17.9916 92.2472 18.1083 91.7225 18.3356C91.1978 18.5629 90.7251 18.896 90.3335 19.3142C89.942 19.7325 89.6399 20.227 89.446 20.7673C89.2521 21.3075 89.1705 21.882 89.2062 22.4553C89.1935 23.0421 89.2986 23.6255 89.5152 24.1706C89.7318 24.7157 90.0555 25.2114 90.4669 25.6279C90.8783 26.0444 91.369 26.3733 91.9097 26.595C92.4503 26.8166 93.0299 26.9264 93.6137 26.9178C94.3443 26.9217 95.0645 26.7435 95.7097 26.399C96.355 26.0545 96.9052 25.5545 97.3111 24.9437L95.7966 23.8938C95.5706 24.2726 95.2506 24.5859 94.868 24.8031C94.4853 25.0203 94.0531 25.1339 93.6137 25.1328C93.1613 25.1501 92.7142 25.0302 92.3305 24.7886C91.9467 24.547 91.6442 24.195 91.4622 23.7782L97.4051 21.3108L97.1857 20.8382ZM91.128 22.3293C91.1068 22.0045 91.1503 21.6787 91.2559 21.3711C91.3615 21.0634 91.5272 20.78 91.7431 20.5375C91.959 20.295 92.2209 20.0983 92.5134 19.9588C92.8059 19.8193 93.1232 19.7399 93.4466 19.7253C93.7835 19.7029 94.1195 19.7806 94.4129 19.9486C94.7063 20.1166 94.9441 20.3675 95.0968 20.6702L91.128 22.3293ZM86.3026 26.6553H88.2557V13.5303H86.3026V26.6553ZM83.1066 18.9903H83.0335C82.7391 18.6594 82.3786 18.3948 81.9754 18.2139C81.5722 18.0329 81.1355 17.9397 80.694 17.9403C79.5526 17.9959 78.4762 18.4909 77.688 19.3227C76.8998 20.1544 76.4601 21.2592 76.4601 22.408C76.4601 23.5568 76.8998 24.6616 77.688 25.4933C78.4762 26.3251 79.5526 26.8201 80.694 26.8758C81.1366 26.8832 81.5754 26.7931 81.9796 26.6117C82.3838 26.4303 82.7436 26.162 83.0335 25.8258H83.0962V26.4663C83.0962 28.1778 82.1875 29.0913 80.7253 29.0913C80.2383 29.0798 79.7657 28.9229 79.3676 28.6406C78.9696 28.3582 78.6642 27.9632 78.4902 27.5058L76.7877 28.2198C77.1082 29.0034 77.6542 29.673 78.3558 30.1426C79.0574 30.6121 79.8825 30.8603 80.7253 30.8553C83.0126 30.8553 84.9031 29.5008 84.9031 26.2038V18.2553H83.1066V18.9903ZM80.8715 25.1643C80.1978 25.1046 79.5708 24.7933 79.114 24.2919C78.6572 23.7904 78.4039 23.1352 78.4039 22.4553C78.4039 21.7753 78.6572 21.1201 79.114 20.6186C79.5708 20.1172 80.1978 19.8059 80.8715 19.7462C81.2055 19.7635 81.5328 19.8478 81.8339 19.9941C82.1351 20.1404 82.404 20.3459 82.625 20.5983C82.8459 20.8508 83.0144 21.1451 83.1204 21.464C83.2264 21.783 83.2679 22.12 83.2424 22.4553C83.2709 22.792 83.2312 23.131 83.1256 23.4519C83.02 23.7727 82.8508 24.0687 82.6282 24.3219C82.4056 24.5752 82.1343 24.7804 81.8305 24.9251C81.5268 25.0699 81.197 25.1513 80.8611 25.1643H80.8715ZM106.335 13.5303H101.666V26.6553H103.62V21.6782H106.346C106.902 21.7185 107.461 21.6429 107.987 21.4564C108.514 21.2699 108.996 20.9764 109.405 20.5941C109.813 20.2119 110.139 19.7491 110.362 19.2347C110.585 18.7203 110.7 18.1653 110.7 17.6042C110.7 17.0432 110.585 16.4882 110.362 15.9738C110.139 15.4594 109.813 14.9966 109.405 14.6144C108.996 14.2321 108.514 13.9386 107.987 13.7521C107.461 13.5656 106.902 13.49 106.346 13.5303H106.335ZM106.335 19.8303H103.609V15.3573H106.377C106.971 15.3573 107.541 15.5945 107.961 16.0169C108.381 16.4393 108.617 17.0122 108.617 17.6095C108.617 18.2068 108.381 18.7797 107.961 19.2021C107.541 19.6245 106.971 19.8617 106.377 19.8617L106.335 19.8303ZM118.378 17.9403C117.666 17.8975 116.958 18.0646 116.341 18.4209C115.723 18.7771 115.222 19.3072 114.9 19.9458L116.633 20.6702C116.804 20.3535 117.063 20.0936 117.378 19.9221C117.694 19.7506 118.052 19.6749 118.409 19.7043C118.657 19.6751 118.908 19.696 119.148 19.7655C119.388 19.835 119.611 19.9519 119.806 20.1092C120 20.2666 120.162 20.4613 120.28 20.682C120.399 20.9027 120.473 21.145 120.498 21.3948V21.5312C119.87 21.1973 119.171 21.0242 118.461 21.0273C116.592 21.0273 114.701 22.0773 114.701 23.9778C114.72 24.383 114.819 24.7804 114.992 25.1465C115.166 25.5125 115.411 25.8398 115.713 26.109C116.015 26.3782 116.368 26.5839 116.75 26.7137C117.132 26.8436 117.536 26.8952 117.939 26.8653C118.431 26.9008 118.923 26.8025 119.364 26.5808C119.805 26.3591 120.179 26.0221 120.446 25.6053H120.508V26.6553H122.388V21.6047C122.388 19.3052 120.654 17.9717 118.43 17.9717L118.378 17.9403ZM118.137 25.1328C117.5 25.1328 116.612 24.8073 116.612 24.0198C116.612 22.9698 117.72 22.6233 118.701 22.6233C119.322 22.6079 119.935 22.7602 120.477 23.0643C120.412 23.6327 120.144 24.1583 119.724 24.5442C119.303 24.9301 118.759 25.1503 118.19 25.1643L118.137 25.1328ZM129.24 18.2553L127.005 23.9462H126.942L124.623 18.2553H122.534L126.012 26.2143L124.028 30.6348H126.065L131.412 18.2553H129.24ZM111.683 26.6553H113.636V13.5303H111.683V26.6553Z" fill="white"/>
<path d="M10.904 7.91725C10.5636 8.32792 10.3917 8.85364 10.4235 9.38725V32.6133C10.3917 33.1469 10.5636 33.6726 10.904 34.0832L10.9771 34.1567L23.9178 21.1578V20.8533L10.9771 7.84375L10.904 7.91725Z" fill="url(#paint0_linear_2214_1005)"/>
<path d="M28.1999 25.4939L23.9177 21.1574V20.8529L28.1999 16.5059L28.2939 16.5584L33.4222 19.4879C34.8844 20.3174 34.8844 21.6824 33.4222 22.5224L28.3148 25.4414L28.1999 25.4939Z" fill="url(#paint1_linear_2214_1005)"/>
<path d="M28.3254 25.431L23.9178 21L10.9041 34.083C11.2021 34.3464 11.5823 34.4968 11.979 34.5083C12.3756 34.5198 12.7638 34.3917 13.0765 34.146L28.3358 25.431" fill="url(#paint2_linear_2214_1005)"/>
<path d="M28.3253 16.5693L13.066 7.85427C12.7533 7.60859 12.3651 7.48042 11.9685 7.49192C11.5718 7.50343 11.1916 7.65388 10.8936 7.91727L23.9178 21.0003L28.3253 16.5693Z" fill="url(#paint3_linear_2214_1005)"/>
<path opacity="0.2" d="M28.2001 25.3369L13.0661 33.9994C12.7645 34.2261 12.3981 34.3485 12.0216 34.3485C11.6451 34.3485 11.2787 34.2261 10.9772 33.9994L10.9041 34.0729L10.9772 34.1464C11.278 34.3747 11.6447 34.4982 12.0216 34.4982C12.3985 34.4982 12.7652 34.3747 13.0661 34.1464L28.3254 25.4314L28.2001 25.3369Z" fill="#3E3E3E"/>
<path opacity="0.12" d="M10.904 33.936C10.5636 33.5253 10.3917 32.9996 10.4235 32.466V32.6235C10.3917 33.1571 10.5636 33.6828 10.904 34.0935L10.9771 34.02L10.904 33.936ZM33.4222 22.365L28.2 25.3365L28.294 25.431L33.4222 22.512C33.7132 22.3746 33.963 22.1624 34.1463 21.897C34.3297 21.6315 34.4402 21.3221 34.4667 21C34.4079 21.2926 34.2832 21.5679 34.1022 21.8045C33.9211 22.0411 33.6885 22.2329 33.4222 22.365Z" fill="#3E3E3E"/>
<path opacity="0.25" d="M13.066 8.00057L33.4222 19.6346C33.6885 19.7667 33.9211 19.9585 34.1022 20.1951C34.2832 20.4317 34.4079 20.7069 34.4666 20.9996C34.4402 20.6775 34.3297 20.3681 34.1463 20.1026C33.963 19.8371 33.7132 19.625 33.4222 19.4876L13.066 7.85357C11.6038 7.02407 10.4131 7.71707 10.4131 9.39707V9.55457C10.4444 7.86407 11.6142 7.17107 13.066 8.00057Z" fill="white"/>
</g>
<defs>
<linearGradient id="paint0_linear_2214_1005" x1="22.7689" y1="9.14575" x2="5.15012" y2="26.6713" gradientUnits="userSpaceOnUse">
<stop stop-color="#00A0FF"/>
<stop offset="0.01" stop-color="#00A1FF"/>
<stop offset="0.26" stop-color="#00BEFF"/>
<stop offset="0.51" stop-color="#00D2FF"/>
<stop offset="0.76" stop-color="#00DFFF"/>
<stop offset="1" stop-color="#00E3FF"/>
</linearGradient>
<linearGradient id="paint1_linear_2214_1005" x1="35.3335" y1="20.9999" x2="10.0684" y2="20.9999" gradientUnits="userSpaceOnUse">
<stop stop-color="#FFE000"/>
<stop offset="0.41" stop-color="#FFBD00"/>
<stop offset="0.78" stop-color="#FFA500"/>
<stop offset="1" stop-color="#FF9C00"/>
</linearGradient>
<linearGradient id="paint2_linear_2214_1005" x1="25.9336" y1="23.415" x2="2.036" y2="47.1757" gradientUnits="userSpaceOnUse">
<stop stop-color="#FF3A44"/>
<stop offset="1" stop-color="#C31162"/>
</linearGradient>
<linearGradient id="paint3_linear_2214_1005" x1="7.62444" y1="0.189271" x2="18.2923" y2="10.8007" gradientUnits="userSpaceOnUse">
<stop stop-color="#32A071"/>
<stop offset="0.07" stop-color="#2DA771"/>
<stop offset="0.48" stop-color="#15CF74"/>
<stop offset="0.8" stop-color="#06E775"/>
<stop offset="1" stop-color="#00F076"/>
</linearGradient>
<clipPath id="clip0_2214_1005">
<rect width="141" height="42" fill="white"/>
</clipPath>
</defs>
</svg>
